<?xml version="1.0" encoding="utf-8"?>
<!-- Generator: Adobe Illustrator 16.0.0, SVG Export Plug-In . SVG Version: 6.00 Build 0)  -->
<!DOCTYPE svg PUBLIC "-//W3C//DTD SVG 1.1//EN" "http://www.w3.org/Graphics/SVG/1.1/DTD/svg11.dtd">
<svg version="1.1" id="Layer_1" xmlns="http://www.w3.org/2000/svg" xmlns:xlink="http://www.w3.org/1999/xlink" x="0px" y="0px"
	 width="512px" height="512px" viewBox="0 0 512 512" enable-background="new 0 0 512 512" xml:space="preserve">
<g>
	<g>
		<g>
			<g>
				<g>
					<path fill="#D869A7" d="M331.828,488.729c-33.792,0-61.284-27.492-61.284-61.284v-91.632c0-33.792,27.492-61.284,61.284-61.284
						h91.632c33.793,0,61.285,27.492,61.285,61.284v91.632c0,33.792-27.492,61.284-61.285,61.284H331.828z"/>
					<path fill="#A24C7F" d="M423.46,277.503c32.202,0,58.311,26.106,58.311,58.31v91.632c0,32.202-26.108,58.31-58.311,58.31
						h-91.632c-32.202,0-58.31-26.107-58.31-58.31v-91.632c0-32.203,26.107-58.31,58.31-58.31H423.46 M423.46,271.553h-91.632
						c-35.433,0-64.26,28.827-64.26,64.26v91.632c0,35.433,28.827,64.26,64.26,64.26h91.632c35.434,0,64.261-28.827,64.261-64.26
						v-91.632C487.721,300.38,458.894,271.553,423.46,271.553L423.46,271.553z"/>
				</g>
			</g>
		</g>
		<g>
			<g>
				<path fill="#FFFFFF" d="M377.548,445.864c-16.36,0-29.267-4.306-38.36-12.798c-9.119-8.513-14.046-20.686-14.642-36.18
					c-0.115-3.115-0.171-8.05-0.171-15.089c0-7.152,0.056-12.197,0.171-15.421c0.597-15.271,5.548-27.383,14.717-36.011
					c9.151-8.609,22.032-12.974,38.285-12.974c10.482,0,19.776,1.838,27.626,5.464c7.94,3.673,14.213,8.794,18.644,15.222
					c4.45,6.465,6.83,13.815,7.074,21.848l0.001,0.431c0,1.795-0.747,3.375-2.161,4.57c-1.265,1.071-2.782,1.638-4.386,1.638
					h-16.507c-2.125,0-3.832-0.578-5.074-1.719c-1.106-1.011-1.943-2.55-2.553-4.699l-0.029-0.112
					c-1.516-6.266-4.088-10.687-7.645-13.139c-3.673-2.53-8.717-3.813-14.99-3.813c-14.646,0-21.758,7.742-22.382,24.363
					c-0.111,2.986-0.168,7.701-0.168,14.013c0,6.317,0.057,11.148,0.169,14.36c0.622,16.614,7.734,24.356,22.381,24.356
					c6.168,0,11.188-1.287,14.92-3.825c3.605-2.452,6.201-6.869,7.715-13.129l0.03-0.114c0.609-2.146,1.445-3.684,2.555-4.699
					c1.247-1.14,2.952-1.716,5.071-1.716h16.507c1.761,0,3.37,0.624,4.653,1.807c1.394,1.288,2.061,3.034,1.89,4.934
					c-0.262,7.995-2.64,15.312-7.07,21.745c-4.43,6.432-10.703,11.553-18.645,15.222
					C397.328,444.025,388.033,445.864,377.548,445.864z"/>
				<path fill="#A24C7F" d="M377.548,320.367c10.097,0,18.889,1.73,26.378,5.19c7.486,3.462,13.299,8.197,17.442,14.209
					c4.14,6.014,6.322,12.762,6.55,20.25v0.34c0,0.91-0.369,1.675-1.106,2.298c-0.738,0.625-1.56,0.936-2.466,0.936h-16.507
					c-1.361,0-2.382-0.311-3.063-0.936c-0.682-0.623-1.251-1.729-1.702-3.319c-1.701-7.031-4.652-11.996-8.848-14.889
					c-4.2-2.894-9.76-4.339-16.679-4.339c-16.223,0-24.674,9.077-25.354,27.227c-0.114,3.063-0.17,7.772-0.17,14.124
					c0,6.354,0.056,11.175,0.17,14.464c0.681,18.152,9.132,27.228,25.354,27.228c6.808,0,12.339-1.447,16.593-4.34
					c4.253-2.893,7.232-7.854,8.934-14.89c0.451-1.588,1.021-2.694,1.702-3.318c0.681-0.622,1.701-0.936,3.063-0.936h16.507
					c1.021,0,1.899,0.34,2.639,1.021c0.736,0.681,1.046,1.531,0.934,2.552c-0.228,7.489-2.41,14.239-6.55,20.251
					c-4.144,6.016-9.956,10.75-17.442,14.209c-7.489,3.462-16.281,5.191-26.378,5.191c-15.653,0-27.766-4-36.33-11.998
					c-8.567-7.997-13.132-19.369-13.699-34.119c-0.113-3.063-0.169-8.054-0.169-14.975c0-7.032,0.056-12.138,0.169-15.314
					c0.567-14.521,5.16-25.837,13.783-33.95C349.922,324.424,362.006,320.367,377.548,320.367 M377.548,314.417
					c-17.035,0-30.602,4.638-40.323,13.782c-9.758,9.182-15.023,21.983-15.651,38.052c-0.117,3.279-0.174,8.358-0.174,15.547
					c0,7.076,0.057,12.047,0.173,15.194c0.628,16.315,5.871,29.182,15.586,38.249c9.661,9.022,23.251,13.599,40.39,13.599
					c10.919,0,20.634-1.932,28.874-5.74c8.433-3.896,15.109-9.358,19.847-16.235c4.744-6.89,7.297-14.713,7.591-23.255
					c0.228-2.805-0.772-5.385-2.836-7.292c-1.852-1.705-4.157-2.602-6.678-2.602h-16.507c-2.885,0-5.266,0.839-7.076,2.493
					c-1.532,1.402-2.646,3.392-3.412,6.085l-0.032,0.113l-0.027,0.114c-1.335,5.52-3.521,9.344-6.496,11.368
					c-3.23,2.196-7.688,3.31-13.247,3.31c-13.039,0-18.844-6.43-19.408-21.5c-0.11-3.161-0.166-7.958-0.166-14.241
					c0-6.275,0.056-10.953,0.166-13.902c0.564-15.068,6.369-21.498,19.408-21.498c5.659,0,10.136,1.106,13.303,3.288
					c2.935,2.023,5.102,5.855,6.44,11.389l0.027,0.112l0.031,0.111c0.766,2.697,1.881,4.688,3.412,6.088
					c1.799,1.652,4.184,2.494,7.077,2.494h16.507c2.316,0,4.499-0.811,6.311-2.345c2.069-1.749,3.212-4.179,3.212-6.839v-0.34
					v-0.091l-0.003-0.09c-0.262-8.614-2.817-16.501-7.596-23.443c-4.739-6.875-11.416-12.337-19.847-16.235
					C398.179,316.348,388.464,314.417,377.548,314.417L377.548,314.417z"/>
			</g>
		</g>
	</g>
	<g>
		<g>
			<g>
				<g>
					<path fill="#8066AB" d="M88.541,488.729c-33.793,0-61.287-27.492-61.287-61.284v-91.632c0-33.792,27.493-61.284,61.287-61.284
						h91.63c33.793,0,61.286,27.492,61.286,61.284v91.632c0,33.792-27.493,61.284-61.286,61.284H88.541z"/>
					<path fill="#614B82" d="M180.171,277.503c32.202,0,58.311,26.106,58.311,58.31v91.632c0,32.202-26.108,58.31-58.311,58.31
						h-91.63c-32.204,0-58.312-26.107-58.312-58.31v-91.632c0-32.203,26.107-58.31,58.312-58.31H180.171 M180.171,271.553h-91.63
						c-35.434,0-64.262,28.827-64.262,64.26v91.632c0,35.433,28.828,64.26,64.262,64.26h91.63c35.434,0,64.261-28.827,64.261-64.26
						v-91.632C244.432,300.38,215.604,271.553,180.171,271.553L180.171,271.553z"/>
				</g>
			</g>
		</g>
		<g>
			<g>
				<path fill="#FFFFFF" d="M94.192,444.163c-1.922,0-3.651-0.714-4.999-2.065c-1.345-1.34-2.06-3.069-2.06-4.994v-110.78
					c0-1.993,0.659-3.753,1.904-5.091c1.3-1.398,3.083-2.139,5.155-2.139h49.349c13.958,0,24.642,3.201,31.755,9.515
					c7.213,6.408,10.87,15.2,10.87,26.133c0,6.495-1.641,12.136-4.876,16.766c-2.002,2.868-4.251,5.255-6.722,7.136
					c3.303,2.288,6.218,5.294,8.706,8.979c3.613,5.359,5.444,11.53,5.444,18.342c0,11.378-3.936,20.708-11.699,27.73
					c-7.677,6.946-18.424,10.469-31.945,10.469H94.192z M142.18,420.006c5.133,0,8.96-1.308,11.7-3.998
					c2.721-2.674,4.044-6.016,4.044-10.215c0-4.188-1.345-7.523-4.113-10.197c-2.795-2.701-6.599-4.015-11.631-4.015h-25.102v28.425
					H142.18z M140.479,367.933c4.995,0,8.815-1.171,11.355-3.479c2.495-2.268,3.708-5.277,3.708-9.2c0-3.884-1.161-6.762-3.55-8.797
					c-2.496-2.126-6.369-3.204-11.513-3.204h-23.401v24.681H140.479z"/>
				<path fill="#614B82" d="M143.541,322.068c13.274,0,23.198,2.923,29.78,8.765c6.578,5.845,9.869,13.813,9.869,23.908
					c0,5.9-1.446,10.921-4.34,15.062c-2.891,4.142-6.269,7.12-10.124,8.933c4.765,2.157,8.79,5.675,12.081,10.551
					c3.289,4.88,4.935,10.439,4.935,16.678c0,10.55-3.572,19.059-10.72,25.524c-7.146,6.467-17.132,9.7-29.949,9.7H94.192
					c-1.136,0-2.1-0.396-2.893-1.191c-0.795-0.792-1.191-1.757-1.191-2.894v-110.78c0-1.247,0.366-2.269,1.106-3.063
					c0.735-0.791,1.729-1.191,2.978-1.191H143.541 M114.103,370.907h26.376c5.784,0,10.235-1.416,13.356-4.253
					c3.119-2.835,4.682-6.637,4.682-11.401c0-4.766-1.532-8.451-4.596-11.062c-3.063-2.608-7.546-3.914-13.442-3.914h-26.376
					V370.907 M114.103,422.98h28.077c5.898,0,10.491-1.616,13.784-4.85c3.289-3.232,4.935-7.345,4.935-12.338
					c0-4.991-1.676-9.104-5.021-12.337c-3.347-3.234-7.911-4.85-13.698-4.85h-28.077V422.98 M143.541,316.118H94.192
					c-2.919,0-5.456,1.068-7.335,3.091c-1.764,1.895-2.699,4.355-2.699,7.114v110.78c0,2.733,1.018,5.191,2.942,7.108
					c1.905,1.91,4.362,2.927,7.092,2.927h50.881c14.281,0,25.7-3.781,33.941-11.238c8.412-7.61,12.678-17.683,12.678-29.937
					c0-7.415-2.002-14.145-5.951-20.003c-1.928-2.856-4.098-5.34-6.495-7.436c1.603-1.561,3.099-3.335,4.482-5.317
					c3.59-5.137,5.411-11.351,5.411-18.467c0-11.819-3.993-21.359-11.867-28.356C169.597,319.572,158.249,316.118,143.541,316.118
					L143.541,316.118z M120.053,346.228h20.426c4.417,0,7.642,0.839,9.584,2.493c1.074,0.916,2.503,2.59,2.503,6.532
					c0,4.046-1.56,5.932-2.733,6.998c-1.976,1.796-5.123,2.706-9.354,2.706h-20.426V346.228L120.053,346.228z M120.053,394.557
					h22.127c4.222,0,7.351,1.039,9.563,3.178c2.187,2.113,3.205,4.674,3.205,8.059c0,3.406-1.002,5.979-3.155,8.094
					c-2.154,2.115-5.299,3.144-9.614,3.144h-22.127V394.557L120.053,394.557z"/>
			</g>
		</g>
	</g>
	<g>
		<g>
			<g>
				<g>
					<path fill="#4DBBEB" d="M261.019,263.317c-25.666,0-48.811-16.211-57.593-40.339l-31.34-86.105
						c-5.599-15.382-4.873-32.024,2.045-46.861s19.2-26.09,34.582-31.688l86.104-31.34c6.767-2.463,13.816-3.712,20.955-3.712
						c25.668,0,48.813,16.212,57.594,40.341l31.34,86.104c5.6,15.381,4.873,32.023-2.046,46.861
						c-6.919,14.837-19.2,26.091-34.582,31.689l-86.103,31.338C275.209,262.068,268.158,263.317,261.019,263.317z"/>
					<path fill="#3B8FB3" d="M315.772,26.247c23.819-0.002,46.181,14.702,54.798,38.383l31.34,86.104
						c11.017,30.26-4.59,63.724-34.85,74.737l-86.103,31.338c-6.583,2.396-13.317,3.533-19.939,3.533
						c-23.818,0-46.18-14.705-54.798-38.382l-31.34-86.105c-11.015-30.261,4.588-63.723,34.85-74.736l86.104-31.34
						C302.415,27.384,309.152,26.248,315.772,26.247 M315.777,20.297v5.95V20.297c-7.494,0-14.886,1.31-21.978,3.891l-86.104,31.34
						c-16.129,5.87-29.007,17.671-36.261,33.228c-7.254,15.556-8.016,33.006-2.145,49.135l31.34,86.105
						c9.208,25.299,33.477,42.296,60.389,42.296c7.487,0,14.881-1.309,21.975-3.892l86.103-31.337
						c16.129-5.871,29.006-17.671,36.261-33.228c7.255-15.558,8.017-33.008,2.145-49.136l-31.34-86.104
						C366.955,37.295,342.689,20.297,315.777,20.297L315.777,20.297z"/>
				</g>
			</g>
		</g>
		<g>
			<g>
				<path fill="#FFFFFF" d="M257.572,220.638c-0.931,0-1.84-0.205-2.703-0.607c-1.585-0.74-2.751-2.029-3.37-3.728
					c-0.074-0.204-0.126-0.416-0.154-0.631l-0.204-1.555c-0.018-0.135-0.026-0.272-0.025-0.409L251.955,96.6
					c0.132-4.322,2.354-7.446,6.256-8.867l17.592-6.402c1.173-0.427,2.339-0.644,3.465-0.644c1.815,0,4.5,0.583,6.981,3.359
					l75.968,89.226c0.088,0.104,0.169,0.214,0.243,0.329l0.844,1.323c0.116,0.183,0.213,0.378,0.287,0.582
					c0.633,1.741,0.523,3.524-0.318,5.157c-0.802,1.553-2.046,2.672-3.599,3.237l-14.23,5.18c-1.045,0.38-2.081,0.573-3.08,0.573
					c-2.202,0-4.229-0.933-5.863-2.699c-0.022-0.025-13.124-15.195-13.124-15.195l-43.479,15.825c0,0-0.284,20.049-0.286,20.085
					c-0.18,3.531-2.129,6.147-5.487,7.368l-14.229,5.18C259.123,220.497,258.343,220.638,257.572,220.638z M278.782,160.649
					l28.134-10.239l-28.02-33.22L278.782,160.649z"/>
				<path fill="#3B8FB3" d="M279.268,83.662c1.765,0,3.354,0.79,4.763,2.367l75.921,89.172l0.844,1.323
					c0.349,0.958,0.293,1.884-0.167,2.776c-0.461,0.893-1.118,1.493-1.972,1.804l-14.23,5.181c-0.721,0.262-1.409,0.394-2.063,0.394
					c-1.376,0-2.603-0.581-3.679-1.744l-14.398-16.673l-47.335,17.229l-0.312,22.027c-0.119,2.336-1.295,3.91-3.533,4.724
					l-14.23,5.181c-0.444,0.161-0.879,0.242-1.304,0.242c-0.494,0-0.976-0.109-1.444-0.328c-0.873-0.407-1.483-1.09-1.833-2.05
					l-0.204-1.555l0.839-117.109c0.094-3.051,1.527-5.084,4.299-6.093l17.592-6.402C277.67,83.816,278.486,83.662,279.268,83.662
					 M275.796,164.902l36.142-13.153l-35.995-42.675L275.796,164.902 M279.268,77.712c-1.475,0-2.982,0.277-4.483,0.823
					l-17.591,6.402c-5.05,1.838-8.043,6.03-8.211,11.501c-0.001,0.046-0.002,0.093-0.002,0.14l-0.839,117.109
					c-0.002,0.273,0.015,0.546,0.05,0.817l0.204,1.555c0.057,0.431,0.16,0.854,0.309,1.262c0.895,2.456,2.592,4.325,4.909,5.406
					c1.258,0.587,2.591,0.886,3.959,0.886c1.117,0,2.239-0.202,3.335-0.599l14.234-5.183c4.486-1.63,7.199-5.279,7.44-10.011
					c0.004-0.073,0.006-0.146,0.007-0.219l0.254-17.924l39.622-14.421l11.717,13.567c0.044,0.051,0.089,0.102,0.135,0.151
					c2.211,2.391,4.993,3.654,8.047,3.654c1.347,0,2.726-0.253,4.097-0.752l14.231-5.181c2.267-0.825,4.073-2.438,5.224-4.665
					c1.216-2.36,1.383-5.037,0.472-7.541c-0.148-0.408-0.342-0.798-0.575-1.165l-0.844-1.323c-0.146-0.23-0.31-0.45-0.486-0.658
					l-75.921-89.172c-0.03-0.036-0.062-0.072-0.094-0.107C285.253,78.467,281.69,77.712,279.268,77.712L279.268,77.712z
					 M281.769,156.397l0.081-31.091l20.046,23.766L281.769,156.397L281.769,156.397z"/>
			</g>
		</g>
	</g>
</g>
</svg>
